<svg aria-hidden="true" style="position:absolute;width:0;height:0" xmlns="http://www.w3.org/2000/svg" overflow="hidden"><defs><symbol id="icon-heart-outlined" viewBox="0 0 20 20"><path d="M17.19 4.156c-1.672-1.535-4.383-1.535-6.055 0L10 5.197 8.864 4.156c-1.672-1.535-4.382-1.535-6.054 0-1.881 1.726-1.881 4.519 0 6.245L10 17l7.19-6.599c1.88-1.726 1.88-4.52 0-6.245zm-1.066 5.219L10 15.09 3.875 9.375c-.617-.567-.856-1.307-.856-2.094s.138-1.433.756-1.999c.545-.501 1.278-.777 2.063-.777s1.517.476 2.062.978L10 7.308l2.099-1.826c.546-.502 1.278-.978 2.063-.978s1.518.276 2.063.777c.618.566.755 1.212.755 1.999s-.238 1.528-.856 2.095z"/></symbol><symbol id="icon-heart" viewBox="0 0 20 20"><path d="M17.19 4.155c-1.672-1.534-4.383-1.534-6.055 0L10 5.197 8.864 4.155c-1.672-1.534-4.382-1.534-6.054 0-1.881 1.727-1.881 4.52 0 6.246L10 17l7.19-6.599c1.88-1.726 1.88-4.52 0-6.246z"/></symbol><symbol id="icon-search" viewBox="0 0 24 24"><path d="M9.516 14.016q1.875 0 3.188-1.313t1.313-3.188-1.313-3.188-3.188-1.313-3.188 1.313-1.313 3.188 1.313 3.188 3.188 1.313zm6 0l4.969 4.969-1.5 1.5-4.969-4.969v-.797l-.281-.281q-1.781 1.547-4.219 1.547-2.719 0-4.617-1.875T3.001 9.516t1.898-4.617 4.617-1.898 4.594 1.898 1.875 4.617q0 .984-.469 2.227t-1.078 1.992l.281.281h.797z"/></symbol><symbol id="icon-keyboard_arrow_down" viewBox="0 0 24 24"><path d="M7.406 8.578L12 13.172l4.594-4.594L18 9.984l-6 6-6-6z"/></symbol></defs></svg>